# xmcd
#
# Track frame offsets:
#	150
#	15513
#	31143
#	46440
#	59241
#	71527
#	85981
#	98210
#	114122
#	135788
#	157039
#	172491
#	183015
#	199720
#	217407
#	232747
#	245632
#	260619
#	276135
#	294318
#	311697
#	330375
#
# Disc length: 4653 seconds
#
# Revision: 1
# Processed by: cddbd v1.5.2PL0 Copyright (c) Steve Scherf et al.
# Submitted via: audiograbber 1.83.01
#
DISCID=3d122b16
DTITLE=Various Artist - BKS-028
DYEAR=2013
DGENRE=Country
TTITLE0=Charlie Rich - The Most Beautiful Girl
TTITLE1=Olivia Newton-John - If You Love Me (Let Me Know)
TTITLE2=Lynn Anderson - Rose Garden
TTITLE3=Kitty Wells - It Wasn't God Who Made Honky Tonk Angels
TTITLE4=Stonewall Jackson - Waterloo
TTITLE5=Olivia Newton-John - Let Me Be There
TTITLE6=Linda Ronstadt - It's So Easy
TTITLE7=Shania Twain - You're Still The One
TTITLE8=Alannah Myles - Black Velvet
TTITLE9=K.D.Lang - Constant Craving
TTITLE10=Lobo - Me And You And A Dog Named Boo
TTITLE11=Tammy Wynette - You're Goog Girls Gonna Go Bad
TTITLE12=Rickie Lee Jones - Chuck e's In Love
TTITLE13=Albert Hammond - It Never Rain's In Southern California
TTITLE14=Linda Ronstadt - Just One Look
TTITLE15=Marie Osmond - Paper Roses
TTITLE16=Aiimi Stewart - Knock On Wood
TTITLE17=Tanya Tucker - Delta Dawn
TTITLE18=Shania Twain - From This Moment On
TTITLE19=Shania Twain - Don't Be Stupid
TTITLE20=Linda Ronstadt - Blue Bayou
TTITLE21=Willie Nelson - Graceland
EXTD=
EXTT0=
EXTT1=
EXTT2=
EXTT3=
EXTT4=
EXTT5=
EXTT6=
EXTT7=
EXTT8=
EXTT9=
EXTT10=
EXTT11=
EXTT12=
EXTT13=
EXTT14=
EXTT15=
EXTT16=
EXTT17=
EXTT18=
EXTT19=
EXTT20=
EXTT21=
PLAYORDER=
